<?xml version="1.0" encoding="utf-8"?>
<!-- Generator: Adobe Illustrator 23.1.0, SVG Export Plug-In . SVG Version: 6.00 Build 0)  -->
<svg version="1.2" baseProfile="tiny" id="Layer_1" xmlns="http://www.w3.org/2000/svg" xmlns:xlink="http://www.w3.org/1999/xlink"
	 x="0px" y="0px" viewBox="0 0 1082 1080" xml:space="preserve">
<path fill="#e4082f" stroke-miterlimit="10" d="M726.39,13.1c16.38,15.07,121.27,111.58,109.11,229.4
	c-11.6,112.37-117.64,127.56-118,229c-0.32,88.87,81,93.3,90,212c7.63,100.62-35.49,189.72-35.49,189.72
	c-0.97,2-0.77,1.54-1.48,3.02c-45.13,94.03,13.17,157.9-10.03,215.26c-10.54,26.05-69.17,47.72-186,90
	c-123.91,44.84-185.92,67.27-188.59,67.84c-175.18,37.1-343.53-81.59-392.17-115.88C-297.84,927.91-476.56,365.55-216.5,75.5
	C-23.32-139.95,319.58-102.11,471.65-85.33C599.15-71.26,672.2-36.76,726.39,13.1z"/>
</svg>
